<?xml version="1.0" encoding="iso-8859-1"?>
<!-- Generator: Adobe Illustrator 23.0.2, SVG Export Plug-In . SVG Version: 6.00 Build 0)  -->
<svg version="1.1" xmlns="http://www.w3.org/2000/svg" xmlns:xlink="http://www.w3.org/1999/xlink" x="0px" y="0px"
	 viewBox="0 0 1920 1080" style="enable-background:new 0 0 1920 1080;" xml:space="preserve">

<g id="Nose">
	<path style="fill:#75797E;" d="M989.656,635.668c0,3.302-0.315,6.562-0.932,9.741c-0.027,0.192-0.068,0.37-0.11,0.548
		c-0.507,2.507-1.206,4.973-2.069,7.398v391.595H763.039c-0.945-61.706-18.838-116.767-46.595-153.977
		c-2.507-3.357-5.083-6.576-7.741-9.631c-13.755-15.81-29.497-27.51-46.54-33.99c-1.671-0.644-3.37-1.233-5.069-1.767
		c0.247-0.658,0.548-1.37,0.891-2.096c2.658-5.59,8.124-12.618,19.139-14.495c0,0,5.603-2.836,12.563-5.987h15.988l-0.137-0.206
		c3.754-0.507,21.619-28.825,21.619-28.825v-0.438c7.261-8.686,13.7-16.701,15.427-19.756c0,0-6.699-75.502-2.028-89.298
		c0,0-5.357-1.562-7.467-4.507c-0.178-0.247-0.329-0.507-0.452-0.767c-1.63-3.452-0.206-58.87,9.535-103.917
		c0,0,1.438-15.399-15.016-26.332c-1.069-0.726-2.219-1.425-3.452-2.096c0,0,1.206-22.592-0.822-30.894
		c-0.178-0.699-0.37-1.302-0.603-1.781c-2.836-6.083-6.686-6.083-6.686-6.083l3.439-47.896c0,0-22.729-26.798-9.535-90.326
		c0,0,15.221-52.363,15.016-60.076c0,0-13.7-53.061-2.192-76.201c0.123-0.247,0.247-0.493,0.37-0.726
		c3-5.617,4.316-10.508,4.466-14.673c0.014-0.452,0.027-0.904,0-1.343c-0.26-11.275-9.22-16.838-15.029-16.536
		c-0.274,0.014-0.548,0.041-0.808,0.082c-7.905,1.206-15.824-9.549-15.824-9.549s-2.233-18.262,5.48-21.715l6.083-1.014
		c0,0,2.644,0,2.028-4.261c0,0-1.206-7.11,3.658-9.535c0,0,0.206-9.138-9.138-13.399c0,0,6.905-26.592,20.509-31.867
		c0,0,0.014-0.219,0.055-0.617c0.219-2.507,1.164-12.385,2.987-23.523c2.521-15.358,6.713-33.072,12.988-37.155
		c0,0,3.658-6.48,8.371-13.906c5.549-8.754,12.522-18.81,16.591-21.003c0,0,0.068,9.686,2.082,21.003
		c1.48,8.275,4.001,17.399,8.275,24.25c0,0,0.343,0.822,0.945,2.219c0.055,0.11,0.11,0.233,0.164,0.356
		c0.863,1.973,2.206,4.932,3.836,8.289c0.178,0.37,0.356,0.74,0.548,1.123c1.096,2.192,2.288,4.521,3.576,6.823
		c0.37,0.671,0.754,1.343,1.123,2c0.137,0.26,0.288,0.507,0.438,0.754c0.534,0.904,1.069,1.795,1.617,2.658
		c0.274,0.438,0.548,0.863,0.808,1.274c0.822,1.274,1.658,2.466,2.507,3.576c0.274,0.37,0.562,0.726,0.836,1.069
		c0.603,0.767,1.219,1.452,1.822,2.082l0.603,6.425c1.466-0.11,2.713-0.137,3.699-0.082l16.632-4.165l-5.425-4.877
		c-0.301-1.178-1.055-2.672-2.48-4.549c0,0-8.522-18.071-4.261-39.786c0,0,1.713-4.37,4.439-9.44
		c3.11-5.809,7.549-12.549,12.207-14.714c0,0,1.48,6.987,4.425,14.714c1.822,4.768,4.206,9.837,7.152,13.7
		c0,0,14.604,33.483,20.701,35.525c0,0,0.014,0.041,0.027,0.11c0.027,0.082,0.068,0.192,0.123,0.315
		c0.082,0.192,0.205,0.425,0.397,0.671c0.068,0.082,0.137,0.164,0.219,0.26c0.74,0.781,2.137,1.562,4.754,1.274
		c0.178,0,0.37-0.027,0.575-0.068c0.493-0.068,1.041-0.178,1.617-0.329c6.891-1.836,63.926-14.413,63.926-14.413
		s0.027-0.137,0.082-0.397c0.068-0.315,0.178-0.795,0.329-1.411c0.014-0.11,0.041-0.219,0.068-0.329
		c0.041-0.219,0.096-0.466,0.164-0.726c0.096-0.425,0.206-0.877,0.315-1.37c0.192-0.863,0.425-1.836,0.671-2.904
		c0.205-0.836,0.411-1.74,0.63-2.685c0.452-1.877,0.945-3.932,1.466-6.042c2.151-4.836,6.494-14.221,10.796-21.181
		c2.754-4.48,5.494-7.946,7.604-8.522c0,0,2.041,3.644,4.946,8.522c4.864,8.179,12.18,19.824,16.372,23.441
		c0,0,6.138,2.343,11.262,2.151c0,0,0.014,0,0.027,0c0.096,0,0.178-0.014,0.274-0.014c0,0,3.685-1.028,8.522-1.973v507.376
		c0.206,1.466,0.356,2.932,0.452,4.425c0.11,1.521,0.164,3.055,0.164,4.59c0,3.083-0.206,6.11-0.617,9.097v34.991
		C988.573,623.625,989.656,629.557,989.656,635.668z"/>
	<path style="fill:#75797E;" d="M983.484,635.668c0,3.302,0.315,6.562,0.932,9.741c0.027,0.192,0.068,0.37,0.11,0.548
		c0.507,2.507,1.206,4.973,2.069,7.398v391.595H1210.1c0.945-61.706,18.838-116.767,46.595-153.977
		c2.507-3.357,5.083-6.576,7.741-9.631c13.755-15.81,29.497-27.51,46.54-33.99c1.671-0.644,3.37-1.233,5.069-1.767
		c-0.247-0.658-0.548-1.37-0.891-2.096c-2.658-5.59-8.124-12.618-19.139-14.495c0,0-5.604-2.836-12.563-5.987h-15.988l0.137-0.206
		c-3.754-0.507-21.619-28.825-21.619-28.825v-0.438c-7.261-8.686-13.7-16.701-15.427-19.756c0,0,6.699-75.502,2.028-89.298
		c0,0,5.357-1.562,7.467-4.507c0.178-0.247,0.329-0.507,0.452-0.767c1.63-3.452,0.205-58.87-9.536-103.917
		c0,0-1.438-15.399,15.016-26.332c1.069-0.726,2.219-1.425,3.453-2.096c0,0-1.206-22.592,0.822-30.894
		c0.178-0.699,0.37-1.302,0.603-1.781c2.836-6.083,6.686-6.083,6.686-6.083l-3.439-47.896c0,0,22.729-26.798,9.535-90.326
		c0,0-15.221-52.363-15.016-60.076c0,0,13.7-53.061,2.192-76.201c-0.123-0.247-0.247-0.493-0.37-0.726
		c-3-5.617-4.316-10.508-4.466-14.673c-0.014-0.452-0.027-0.904,0-1.343c0.26-11.275,9.22-16.838,15.029-16.536
		c0.274,0.014,0.548,0.041,0.808,0.082c7.905,1.206,15.824-9.549,15.824-9.549s2.233-18.262-5.48-21.715l-6.083-1.014
		c0,0-2.644,0-2.028-4.261c0,0,1.206-7.11-3.658-9.535c0,0-0.206-9.138,9.138-13.399c0,0-6.905-26.592-20.509-31.867
		c0,0-0.014-0.219-0.055-0.617c-0.219-2.507-1.164-12.385-2.987-23.523c-2.521-15.358-6.713-33.072-12.988-37.155
		c0,0-3.658-6.48-8.371-13.906c-5.549-8.754-12.522-18.81-16.591-21.003c0,0-0.068,9.686-2.082,21.003
		c-1.48,8.275-4,17.399-8.275,24.25c0,0-0.343,0.822-0.945,2.219c-0.055,0.11-0.11,0.233-0.164,0.356
		c-0.863,1.973-2.206,4.932-3.836,8.289c-0.178,0.37-0.356,0.74-0.548,1.123c-1.096,2.192-2.288,4.521-3.576,6.823
		c-0.37,0.671-0.754,1.343-1.123,2c-0.137,0.26-0.288,0.507-0.438,0.754c-0.534,0.904-1.068,1.795-1.617,2.658
		c-0.274,0.438-0.548,0.863-0.808,1.274c-0.822,1.274-1.658,2.466-2.507,3.576c-0.274,0.37-0.562,0.726-0.836,1.069
		c-0.603,0.767-1.219,1.452-1.822,2.082l-0.603,6.425c-1.466-0.11-2.713-0.137-3.699-0.082l-16.632-4.165l5.425-4.877
		c0.302-1.178,1.055-2.672,2.48-4.549c0,0,8.522-18.071,4.261-39.786c0,0-1.713-4.37-4.439-9.44
		c-3.11-5.809-7.549-12.549-12.207-14.714c0,0-1.48,6.987-4.425,14.714c-1.822,4.768-4.206,9.837-7.151,13.7
		c0,0-14.604,33.483-20.701,35.525c0,0-0.014,0.041-0.027,0.11c-0.027,0.082-0.068,0.192-0.123,0.315
		c-0.082,0.192-0.205,0.425-0.397,0.671c-0.068,0.082-0.137,0.164-0.219,0.26c-0.74,0.781-2.137,1.562-4.754,1.274
		c-0.178,0-0.37-0.027-0.575-0.068c-0.493-0.068-1.041-0.178-1.617-0.329c-6.891-1.836-63.926-14.413-63.926-14.413
		s-0.027-0.137-0.082-0.397c-0.068-0.315-0.178-0.795-0.329-1.411c-0.014-0.11-0.041-0.219-0.068-0.329
		c-0.041-0.219-0.096-0.466-0.164-0.726c-0.096-0.425-0.205-0.877-0.315-1.37c-0.192-0.863-0.425-1.836-0.671-2.904
		c-0.205-0.836-0.411-1.74-0.63-2.685c-0.452-1.877-0.945-3.932-1.466-6.042c-2.151-4.836-6.494-14.221-10.796-21.181
		c-2.754-4.48-5.494-7.946-7.604-8.522c0,0-2.041,3.644-4.946,8.522c-4.864,8.179-12.18,19.824-16.372,23.441
		c0,0-6.138,2.343-11.262,2.151c0,0-0.014,0-0.027,0c-0.096,0-0.178-0.014-0.274-0.014c0,0-3.685-1.028-8.522-1.973v507.376
		c-0.205,1.466-0.356,2.932-0.452,4.425c-0.11,1.521-0.164,3.055-0.164,4.59c0,3.083,0.206,6.11,0.617,9.097v34.991
		C984.566,623.625,983.484,629.557,983.484,635.668z"/>
	<path style="fill:#525A60;" d="M988.072,657.384c0,0-30.445,45.059-96.815,52.061c0,0-4.12,46.222,33.772,69.876
		c0.408,0.255,0.821,0.507,1.24,0.757c0,0,12.178,13.091,16.136,16.136c0,0,37.143-4.871,41.405-6.698l3.349-0.913L988.072,657.384z
		"/>
	<path style="fill:#8B9497;" d="M867.409,706.401l23.849,3.044c0,0-8.829,44.754,51.148,86.768l44.754-7.611l-1.827,23.747
		l-45.668,8.525c0,0-21.92,0.609-28.009-16.44c-6.089-17.049-33.49-20.094-44.45-60.89s0,0,0,0S859.696,705.792,867.409,706.401"/>
	<path style="fill:#3E4F50;" d="M985.941,837.924l-0.609-25.574c0,0-41.405,10.96-53.583,7.916c0,0-56.628-42.014-57.237-57.846
		s0,0,0,0s14.614,28.009,14.614,47.494c0,0,13.396,21.92,39.579,24.965C928.705,834.879,971.328,839.75,985.941,837.924z"/>
	<path style="fill:#04192B;" d="M987.159,788.602c0,0-4.262-49.93-1.218-88.291c0,0-36.534,39.579-14.005,90.117l-12.787,2.436
		c0,0-3.653-49.93-24.965-68.806c0,0-1.218,59.063-6.089,59.672c0,0-37.143-28.618-36.839-74.286c0.304-45.668,0,0,0,0
		s2.74,29.836,11.265,34.707c0,0-4.262-32.272,4.262-35.925c8.525-3.653,0,0,0,0l9.133-1.827c0,0-26.792,40.796,4.871,59.672
		c0,0,2.436-61.499,22.529-68.197c20.094-6.698,0,0,0,0s-7.916,47.494,18.267,61.499c0,0-1.218-70.024,16.44-75.504l7.916-3.653
		L987.159,788.602z"/>
	<path style="fill:#525A60;" d="M985.067,657.384c0,0,30.445,45.059,96.815,52.061c0,0,4.12,46.222-33.772,69.876
		c-0.408,0.255-0.821,0.507-1.24,0.757c0,0-12.178,13.091-16.136,16.136c0,0-37.143-4.871-41.405-6.698l-3.349-0.913
		L985.067,657.384z"/>
	<path style="fill:#8B9497;" d="M1105.731,706.401l-23.849,3.044c0,0,8.829,44.754-51.148,86.768l-44.754-7.611l1.827,23.747
		l45.668,8.525c0,0,21.92,0.609,28.01-16.44c6.089-17.049,33.49-20.094,44.45-60.89s0,0,0,0S1113.444,705.792,1105.731,706.401"/>
	<path style="fill:#3E4F50;" d="M987.198,837.924l0.609-25.574c0,0,41.405,10.96,53.583,7.916c0,0,56.628-42.014,57.237-57.846
		s0,0,0,0s-14.614,28.009-14.614,47.494c0,0-13.396,21.92-39.579,24.965C1044.435,834.879,1001.812,839.75,987.198,837.924z"/>
	<path style="fill:#04192B;" d="M985.981,788.602c0,0,4.262-49.93,1.218-88.291c0,0,36.534,39.579,14.005,90.117l12.787,2.436
		c0,0,3.653-49.93,24.965-68.806c0,0,1.218,59.063,6.089,59.672c0,0,37.143-28.618,36.839-74.286c-0.305-45.668,0,0,0,0
		s-2.74,29.836-11.265,34.707c0,0,4.262-32.272-4.262-35.925c-8.525-3.653,0,0,0,0l-9.134-1.827c0,0,26.792,40.796-4.871,59.672
		c0,0-2.436-61.499-22.529-68.197c-20.094-6.698,0,0,0,0s7.916,47.494-18.267,61.499c0,0,1.218-70.024-16.44-75.504l-7.916-3.653
		L985.981,788.602z"/>
	<path style="fill:#333B44;" d="M742.787,687.728c0,0-4.059-51.96,0-59.266c0,0,10.554-50.336,8.931-57.643
		c0,0,17.049-25.168,27.604-24.356c0,0,9.742,9.742,15.426,1.624c0,0,0-28.415,8.931-32.475c0,0,9.742-6.495,22.732,0.812
		c0,0,17.049,15.425,17.861,22.732c0,0-4.059,39.782-2.436,45.465c0,0-18.673,26.792-9.742,62.514l29.227,53.583
		c0,0,27.604,124.216,40.593,130.711c0,0-56.019-11.366-96.612,14.614c0,0-61.702-2.436-125.028-16.237
		c0,0,38.97-8.119,65.761-56.831c0,0-4.059-72.256-7.307-73.88L742.787,687.728z"/>
	<path style="fill:#121E2D;" d="M986.354,529.984v29.853c-26.236-38.265-77.434-13.728-77.434-13.728
		c-2.439-3.658,18.564-17.961,18.564-17.961c22.838-12.18,57.843,2.74,57.843,2.74C985.655,530.573,985.998,530.272,986.354,529.984
		z"/>
	<path style="fill:#121E2D;" d="M986.354,456.427v17.098c-0.452,0.356-0.712,0.575-0.712,0.575
		c-11.974-16.139-35.086-5.535-35.086-5.535c-1.11-1.534,7.891-7.919,7.891-7.919C967.694,455.468,984.381,456.304,986.354,456.427z
		"/>
	<path style="fill:#121E2D;" d="M986.354,496.637v18.317c-1.302,0.904-2.083,1.466-2.083,1.466
		c-18.824-25.373-48.102-12.481-48.102-12.481c-1.754-2.398,10.111-10.7,10.111-10.7
		C960.255,485.417,982.285,494.774,986.354,496.637z"/>
	<path style="fill:#596564;" d="M978.026,672.911c0,0-85.246,65.152-121.78,20.703c0,0-25.574-54.801-8.525-176.581
		c0,0,6.089-108.993-6.089-121.171c0,0,23.747,56.628,32.272,57.237c0,0,33.49,9.134,54.192,4.262c0,0,16.317-14.918,19.988-21.911
		c0.524-0.999,0.791-1.836,0.715-2.445c-0.609-4.871-7.307-12.787-10.351-12.787s0,0,0,0s-39.579,29.836-71.241-7.916
		c0,0-31.663-30.445-26.792-59.063c0,0,13.396-37.752,37.752-48.712c0,0,15.831,9.134,16.44,18.876c0,0,7.307,17.658,6.089,24.965
		c0,0,7.307,29.836,14.614,24.356c0,0-10.148,21.717,18.47,30.141c28.618,8.423,0,0,0,0l13.091,3.856c0,0,2.537,6.19,6.596,4.973
		c0,0-4.871,24.762,2.841,23.95c0,0-14.512,22.326-14.512,24.153c0,1.827-2.131,12.482-0.913,12.482
		c1.218,0-16.745,17.658-13.7,25.269c0,0,3.653,8.829-4.262,9.134c0,0-20.398,11.265-22.834,18.267c0,0-2.436,19.18-0.304,24.965
		L978.026,672.911z"/>
	<path style="fill:#121E2D;" d="M985.941,339.842c0,0-21.515,4.059-37.346,35.316c0,0,22.632-41.834,25.348-50.81
		c0.239-0.79,0.324-1.326,0.225-1.556c-1.218-2.842-2.842-21.109-5.683-23.95c0,0-10.96-21.514-14.614-18.673
		c0,0-52.771,49.118-49.93,71.038l-0.812-8.931c0,0,3.247-23.138,46.682-62.108c0,0-1.218-62.514-2.03-64.544
		c0,0,2.436-12.99,12.178-22.732c0,0,2.436-22.326-2.03-24.356c0,0,9.742-13.396,13.802-16.643c0,0,5.683-16.643-2.842-30.039
		c0,0-17.861-27.604-4.059-36.128c0,0,6.901-8.525,9.742-8.525l8.119,11.366c0,0-5.683,11.772-2.03,23.138
		c3.653,11.366,0.406,1.624,0.406,1.624s8.525,50.336-6.901,77.127c0,0,2.03,60.89,6.089,67.385l5.683,32.475V339.842z"/>
	<path style="fill:#596564;" d="M879.181,300.061c0,0,6.089-23.138,14.208-26.386c0,0,22.326-33.287,34.504-37.346l-0.812-2.842
		c0,0-38.97,37.752-43.435,48.306c0,0-35.722-13.396-30.445-27.604c0,0-2.436-30.039,2.841-35.722c0,0-20.703,45.059-18.267,49.524
		l7.307-11.366c0,0,4.465,6.089-0.406,11.772c0,0,8.119-1.624,9.742-1.218c0,0,5.596,12.591,12.568,16.671
		c0.539,0.315,1.086,0.58,1.64,0.784C876.339,287.477,879.587,293.566,879.181,300.061z"/>
	<path style="fill:#9BA6A0;" d="M826.499,323.493c-0.822,2.617-1.74,5.096-2.768,7.439v0.014
		c-5.494,12.563-13.673,20.756-22.879,21.427c-0.411,0.041-0.822,0.055-1.233,0.055c-0.712,0-1.425-0.041-2.137-0.151
		c-13.262-1.671-24.263-19.002-27.866-42.293c-3.644-7.974-6.425-17.249-8.083-27.373c-1.11-6.836-1.699-14.057-1.699-21.523
		c0-2.959,0.096-5.864,0.288-8.741c0.384-6.247,1.192-12.275,2.384-17.988c6.576,2.178,12.7,6.357,18.084,12.152
		c4.343,4.658,8.22,10.357,11.481,16.879C811.073,275.967,824.334,297.97,826.499,323.493z"/>
	<path style="fill:#475152;" d="M808.142,356.587c0,0,15.375-11.112,18.267-41.253c0,0-10.047-20.398-19.333-25.269
		c0,0-11.417-15.223-12.635-15.527c0,0-6.698,3.197-7.155,3.958l-7.611-12.026c0,0-5.48,18.267-3.653,21.159
		c0,0,2.283,13.7,4.262,15.223l1.674,4.262l1.218,10.047c0,0,3.197,6.089,5.785,5.785c0,0-0.152-9.286-2.74-11.569l-3.044-1.979
		c0,0-1.809-19.478-0.239-24.384c0.072-0.226,0.152-0.421,0.239-0.581c1.979-3.653,5.937,3.501,5.937,3.501
		s7.916,18.876,8.22,19.333c0.304,0.457,7.763,18.724,6.393,25.269c0,0,3.349,15.223-0.761,18.876c0,0-19.028-0.304-27.248-19.485
		c0,0-18.571-36.991-13.852-53.127c0,0-4.871-27.857-4.465-33.54c0,0,3.211-13.914,6.288-15.319c0.205-0.094,0.41-0.132,0.613-0.106
		c3.247,0.406,14.918-4.161,20.398,4.973l10.351-1.522l-50.539-29.532c0,0-17.049,59.368,3.653,99.555
		c0,0,10.351-0.913,13.091,3.958s11.874,26.487,11.874,26.487S789.875,366.329,808.142,356.587z"/>
	<path style="fill:#888C85;" d="M793.687,90.342l0.603,6.425c-17.728,1.356-67.118,14.481-69.365,13.728l-0.753-2.041
		c0.219-2.507,1.164-12.385,2.987-23.523c2.521-15.358,6.713-33.072,12.988-37.155c0,0,3.658-6.48,8.371-13.906
		c5.549-8.754,12.522-18.81,16.591-21.003c0,0,0.068,9.686,2.082,21.003c1.48,8.275,4.001,17.399,8.275,24.25
		c0,0,0.343,0.822,0.945,2.219c0.055,0.11,0.11,0.233,0.164,0.356c0.863,1.973,2.206,4.932,3.836,8.289
		c0.178,0.37,0.356,0.74,0.548,1.123c1.096,2.192,2.288,4.521,3.576,6.823c0.356,0.671,0.74,1.343,1.123,2
		c0.137,0.26,0.288,0.507,0.438,0.754c0.521,0.904,1.069,1.795,1.617,2.658c0.26,0.438,0.534,0.863,0.808,1.274
		c0.822,1.274,1.658,2.466,2.507,3.576c0.274,0.37,0.548,0.726,0.836,1.069C792.467,89.027,793.084,89.712,793.687,90.342z"/>
	<path style="fill:#888C85;" d="M858.503,86.725L820.731,91l-5.754,1.439l-0.356,0.082l-5.425-4.877
		c-0.301-1.178-1.055-2.672-2.48-4.549c0,0-8.522-18.071-4.261-39.786c0,0,1.713-4.37,4.439-9.44
		c3.11-5.809,7.549-12.549,12.207-14.714c0,0,1.48,6.987,4.425,14.714c1.822,4.768,4.206,9.837,7.152,13.7
		c0,0,14.604,33.483,20.701,35.525c0,0,0.014,0.041,0.027,0.11c0.027,0.082,0.068,0.192,0.123,0.315
		c0.082,0.192,0.205,0.425,0.397,0.671c0.068,0.096,0.137,0.178,0.219,0.26c0.74,0.781,2.137,1.562,4.754,1.274
		c0.192-0.014,0.384-0.041,0.575-0.068L858.503,86.725z"/>
	<path style="fill:#888C85;" d="M977.723,59.461c-4.877,1.219-43.06,10.782-53.02,13.454l-1.603-2.398
		c0.37-1.644,1.836-8.179,3.644-15.468c2.151-4.836,6.494-14.221,10.796-21.181c2.754-4.48,5.494-7.946,7.604-8.522
		c0,0,2.041,3.644,4.946,8.522c4.864,8.179,12.18,19.824,16.372,23.441C966.461,57.311,972.599,59.653,977.723,59.461z"/>
	<line style="fill:#888C85;" x1="858.503" y1="86.725" x2="857.475" y2="85.656"/>
	<line style="fill:#888C85;" x1="924.703" y1="72.915" x2="923.1" y2="70.518"/>
	<line style="fill:#888C85;" x1="814.621" y1="92.52" x2="809.196" y2="87.643"/>
	<line style="fill:#888C85;" x1="794.29" y1="96.767" x2="793.687" y2="90.342"/>
	<path style="fill:#9BA6A0;" d="M730.504,321.107c-0.657,2.859-1.079,5.724-1.264,8.566c-0.394,5.648,0.122,11.199,1.529,16.429
		c-5.187,18.83-3.663,35.948,4.801,47.062l0.003,0.009c0.9,1.176,1.872,2.29,2.934,3.326c0.696,0.691,1.428,1.351,2.206,1.978
		c2.044,0.076,4.073,0.011,6.101-0.19l0.014,0.007c0.519-0.051,1.034-0.111,1.542-0.19c0.011-0.003,0.035,0.001,0.046-0.002
		l0.011-0.003c10.281-1.406,19.891-6.404,26.323-14.493c0.3-0.375,0.597-0.76,0.88-1.151c0.497-0.68,0.966-1.373,1.397-2.076
		c4.197-6.676,5.718-14.137,4.794-21.292c-0.003-0.041-0.005-0.082-0.008-0.123c-0.91-6.878-4.071-13.493-9.258-18.899
		c-1.959-6.076-5.246-11.75-9.8-16.645c-0.189-0.208-0.385-0.403-0.582-0.598c-0.003-0.009-0.014-0.007-0.014-0.007
		c-2.038-2.129-4.343-4.09-6.895-5.857l-0.014-0.007c-1.085-0.77-2.227-1.504-3.427-2.2c-0.542-0.317-1.078-0.616-1.635-0.909
		L730.504,321.107z"/>
	<path style="fill:#475152;" d="M772.064,391.906c0,0-10.195,6.589-23.651,6.202c-0.011,0-0.033-0.01-0.044,0
		c-3.127-0.099-6.455-0.567-9.861-1.61c-0.768-0.229-1.547-0.497-2.326-0.785c0,0-0.267-0.954-0.612-2.534v-0.01
		c-1.091-4.979-3.005-16.19-0.2-24.081c0,0-0.646-15.832,0.022-17.075c0,0,6.444-5.317,7.19-5.496l-1.491-11.171
		c0,0,14.09,0.795,14.446,3.469c0,0,6.121,6.659,5.609,9.044l1.235,2.982l4.808,4.452c0,0,1.213,5.029-0.757,7.384
		c0,0-5.12-3.19-4.608-6.391l0.991-3.548c0,0-9.694-8.09-13.545-8.219c-0.178,0-0.334,0.01-0.49,0.04
		c-3.439,0.686-2.159,6.778-2.159,6.778s5.142,13.705,5.186,14.143c0.045,0.437,5.142,13.507,9.783,14.351
		c0,0,6.244,8.169,11.152,5.456c0,0,9.661-13.457,9.082-26.198c-0.011-0.04-0.011-0.08-0.011-0.119
		c-0.1-2.018-0.456-4.005-1.146-5.923c0,0-7.168-26.914-18.497-30.223c0-0.01-0.011-0.01-0.011-0.01
		c-0.59-0.179-1.169-0.288-1.77-0.328c0,0-2.259-2.524-5.131-5.526l-0.011-0.01c-1.113-1.193-2.337-2.455-3.55-3.657l4.196-1.55
		l21.035,20.006c1.146,4.79,6.567,19.45,6.567,19.45S790.205,377.763,772.064,391.906z"/>
	<line style="fill:none;" x1="773.184" y1="358.041" x2="775.041" y2="357.276"/>
	<line style="fill:none;" x1="776.928" y1="331.747" x2="755.893" y2="311.741"/>
	<path style="fill:#9BA6A0;" d="M817.483,488.396c1.372-2.592,2.519-5.252,3.431-7.95c1.838-5.355,2.771-10.852,2.761-16.267
		c9.87-16.855,12.813-33.786,7.504-46.708l-0.001-0.01c-0.566-1.368-1.218-2.695-1.976-3.971c-0.494-0.847-1.031-1.674-1.621-2.48
		c-1.955-0.601-3.932-1.061-5.943-1.391l-0.012-0.01c-0.514-0.085-1.027-0.16-1.539-0.214c-0.011,0-0.034-0.01-0.045-0.01l-0.011,0
		c-10.296-1.294-20.87,1.055-29.171,7.211c-0.387,0.285-0.773,0.58-1.148,0.885c-0.656,0.529-1.288,1.077-1.885,1.645
		c-5.777,5.367-9.172,12.183-10.125,19.335c-0.008,0.04-0.016,0.08-0.024,0.121c-0.896,6.88,0.452,14.087,4.069,20.648
		c0.325,6.375,2.037,12.706,5.174,18.61c0.129,0.249,0.269,0.489,0.408,0.728c0.001,0.01,0.012,0.01,0.012,0.01
		c1.419,2.583,3.141,5.072,5.151,7.437l0.012,0.01c0.85,1.024,1.764,2.027,2.743,3.01c0.442,0.447,0.882,0.873,1.345,1.3
		L817.483,488.396z"/>
	<path style="fill:#475152;" d="M795.596,409.272c0,0,11.55-3.736,24.45,0.11c0.011,0.003,0.03,0.018,0.043,0.011
		c2.996,0.903,6.091,2.213,9.112,4.1c0.683,0.419,1.366,0.879,2.045,1.359c0,0,0.012,0.991-0.062,2.606l-0.003,0.01
		c-0.231,5.092-1.274,16.417-6.019,23.318c0,0-3.461,15.463-4.427,16.491c0,0-7.598,3.475-8.364,3.455l-1.441,11.178
		c0,0-13.408-4.403-13.062-7.078c0,0-4.196-8.013-3.086-10.185l-0.424-3.199l-3.497-5.542c0,0,0.125-5.172,2.636-6.939
		c0,0,4.123,4.403,2.803,7.363l-1.872,3.172c0,0,7.279,10.317,10.966,11.435c0.172,0.046,0.325,0.077,0.483,0.088
		c3.5,0.225,3.835-5.992,3.835-5.992s-1.432-14.568-1.362-15.002c0.07-0.434-1.483-14.376-5.749-16.389c0,0-3.925-9.504-9.367-8.149
		c0,0-12.805,10.509-15.533,22.968c0,0.041-0.01,0.08-0.02,0.118c-0.424,1.975-0.592,3.987-0.421,6.019
		c0,0-0.019,27.852,10.074,33.972c-0.003,0.01,0.008,0.012,0.008,0.012c0.524,0.325,1.055,0.58,1.625,0.773
		c0,0,1.532,3.022,3.531,6.663l0.008,0.012c0.768,1.439,1.625,2.975,2.487,4.45l-4.454,0.415l-15.161-24.756
		c0.128-4.924-1.326-20.486-1.326-20.486S774.42,418.256,795.596,409.272z"/>
	<line style="fill:none;" x1="775.376" y1="466.139" x2="790.537" y2="490.895"/>
	<path style="fill:#9BA6A0;" d="M882.602,776.753c-0.507,5.494-2.521,10.727-5.795,15.591c-2.795,4.151-6.521,8.028-11.015,11.522
		c-0.164,0.137-0.342,0.26-0.507,0.397c-1.206,0.918-2.466,1.808-3.781,2.685c-6.357,8.974-18.263,16.399-33.36,20.934
		c-1.219,0.891-2.535,1.699-3.918,2.439c-10.275,1.959-21.578,3.041-33.442,3.041c-1.548,0-3.096-0.014-4.631-0.055
		c-9.385-0.219-18.372-1.123-26.716-2.589c-4.699-0.836-9.207-1.849-13.454-3.014c-0.521-1.685-0.808-3.411-0.849-5.179
		c-0.014-0.192-0.014-0.397-0.014-0.589c0-2.767,0.576-5.453,1.672-8.042c0.37-0.863,0.795-1.713,1.274-2.548
		c1.151-2.028,2.63-3.973,4.411-5.836c0.411-0.425,0.836-0.849,1.274-1.274c3.37-6.22,9.933-11.645,18.591-15.701
		c7.042-6.288,17.605-10.289,29.401-10.289c6.371,0,12.385,1.164,17.66,3.22c1.151,0.452,2.26,0.945,3.343,1.48
		c0.014,0.151,0.014,0.315,0.014,0.479c0,1.26-0.096,2.493-0.274,3.713c-1.672,11.659-11.18,21.427-24.236,25.921
		c15.427-2.206,29.428-6.124,41.197-11.33c4.617-2.041,8.891-4.274,12.769-6.699c0.945-0.576,1.849-1.165,2.74-1.767
		c4-2.713,7.508-5.617,10.453-8.686c1.699-1.74,3.206-3.548,4.535-5.384c3.083-4.316,5.11-8.891,5.946-13.632
		C877.437,769.52,879.697,773.273,882.602,776.753z"/>
	<path style="fill:#122032;" d="M796.37,799.36c0,0,5.277-2.436,4.465-4.465c0,0-19.485-8.119-28.009,16.643
		c0,0-3.247,7.713,17.049,6.089c0,0,60.89-14.614,88.088-42.623c0,0-17.861-43.029-13.802-53.989c0,0,1.624-14.614,3.247-14.614
		l-6.089-5.683c0,0-10.554,13.802-33.693,4.465c0,0-19.891-14.614-19.891-19.079c0,0-2.436,30.445-11.772,30.445
		c0,0-21.109-8.525-17.861-17.049c0,0-22.732,12.178-25.574,15.831c0,0,0.406,52.366,7.713,58.455c0,0-20.703,32.069-15.426,40.188
		c0,0,15.426-21.92,38.158-32.475c0,0,24.356-7.713,33.287-1.624c0,0,12.178,9.742-0.812,20.703c0,0-19.485,10.148-25.168,9.742
		c0,0-19.485,4.465-10.96-4.871C779.321,805.449,790.281,794.489,796.37,799.36z"/>
	<path style="fill:#68716F;" d="M744.512,203.753c0,0,25.066-42.928,57.541-51.858c0,0-12.99-5.683,4.059-14.614
		c0,0,77.128-30.851,94.989-19.485c0,0,8.931-0.812,5.683,8.119c0,0-29.227,40.593-29.227,43.029c0,0-19.485,30.851-17.861,39.782
		c0,0,22.732-50.336,71.444-51.148c0,0-23.544-1.624-47.9,9.742c0,0,27.604-46.276,48.712-49.524c0,0,21.109-7.307,21.109-0.812
		l10.554-5.683c0,0-18.061-46.849,14.108-51.84c32.169-4.991-3.553-0.932-3.553-0.932s-31.663,16.237-27.604,30.039
		c0,0,3.247,16.237,9.742,18.673c0,0-34.098-1.624-41.405,8.931c0,0,1.624-25.98,6.495-30.039c0,0-10.554-14.614-12.99,10.554
		l2.436,7.307c0,0-12.99-14.614-46.276,0c0,0-66.573,9.742-143.701,73.068l-3.247,19.485L744.512,203.753z"/>
	<path style="fill:#5F6765;" d="M879.181,161.637c0,0-59.266-8.119-77.127,4.871c0,0-36.534,48.712-30.851,52.771l23.849,14.005
		l-10.351,1.522c0,0-32.17-12.28-5.379,6.393c0,0,51.96,45.16,47.088,74.134c0,0-1.624-41.659,6.495-44.095
		C832.904,271.239,865.379,168.944,879.181,161.637z"/>
	<path style="fill:#37494F;" d="M744.41,560.265c0,0,24.356-26.792,37.346-40.593c0,0-1.624-34.098,1.624-36.534
		c0,0-19.485-38.97-4.059-57.643l4.871-13.802l-15.425-17.861l-11.366,3.247l12.99,28.415l0.812,13.802l-22.789-41.189
		c0,0-19.429-2.652-21.052-17.266l3.247,40.593v20.297l11.366-38.158l18.673,26.792l5.683,38.158c0,0-17.049,16.237-23.544,22.732
		c0,0,1.624,33.287,9.742,36.534C752.529,527.79,750.905,535.097,744.41,560.265z"/>
	<path style="fill:#38464F;" d="M786.628,367.04c0,0,8.931,38.97,6.495,38.97l8.119-0.812l-0.812-31.663
		c0,0,3.247-8.931,8.931,8.931l17.861,25.168c0,0,13.802,20.297,8.931,33.287l-12.476,23.259c0,0-2.129,22.982-6.192,24.217
		c-4.064,1.236,21.916-6.071,30.035,15.849c8.119,21.92,2.436,3.247,2.436,3.247s-4.871-132.335-24.356-154.255
		c0,0,3.247,17.861,5.683,24.356l-3.247,19.485l-30.039-35.722L786.628,367.04z"/>
	<path style="fill:#ACB0AB;" d="M733.858,1025.468c0,6.604-0.247,13.098-0.74,19.482H632.626v-95.176l1.069-0.219l2.877-3.658
		l12.138-15.427c0,0-4.055-44.649-0.808-49.924c0,0-0.288-1.206-0.452-3.261c-0.164-2.028-0.192-4.905,0.301-8.275
		c1.589,0.288,3.165,0.658,4.727,1.082c17.619,4.713,33.621,17.057,46.677,34.881c2.713,3.658,5.275,7.549,7.686,11.645
		C723.583,944.897,733.858,983.258,733.858,1025.468z"/>
	<path style="fill:#6C7272;" d="M733.118,1044.95c0.493-6.384,0.74-12.878,0.74-19.482c0-27.181-4.261-52.76-11.769-75.078
		c-4.137-12.344-9.289-23.701-15.248-33.771c-1.411-2.398-2.863-4.713-4.384-6.96c-1.069-1.603-2.178-3.165-3.302-4.685
		c-13.056-17.824-29.058-30.168-46.677-34.881c-1.562-0.425-3.137-0.795-4.727-1.082c0.247-1.617,0.617-3.329,1.151-5.124
		c1.096-3.713,2.904-7.754,5.823-11.796c0.288-0.397,0.589-0.781,0.891-1.178c0,0,0.288-2.261,1.48-5.329
		c1.699,0.534,3.398,1.123,5.069,1.767c17.043,6.48,32.785,18.18,46.54,33.99c2.658,3.055,5.233,6.275,7.741,9.631
		c27.757,37.21,45.649,92.271,46.595,153.977H733.118z"/>
	<path style="fill:#333B44;" d="M1230.353,687.728c0,0,4.059-51.96,0-59.266c0,0-10.554-50.336-8.931-57.643
		c0,0-17.049-25.168-27.604-24.356c0,0-9.742,9.742-15.426,1.624c0,0,0-28.415-8.931-32.475c0,0-9.742-6.495-22.732,0.812
		c0,0-17.049,15.425-17.861,22.732c0,0,4.059,39.782,2.436,45.465c0,0,18.673,26.792,9.742,62.514l-29.227,53.583
		c0,0-27.604,124.216-40.594,130.711c0,0,56.019-11.366,96.612,14.614c0,0,61.702-2.436,125.028-16.237
		c0,0-38.97-8.119-65.761-56.831c0,0,4.059-72.256,7.307-73.88L1230.353,687.728z"/>
	<path style="fill:#121E2D;" d="M986.786,529.984v29.853c26.236-38.265,77.434-13.728,77.434-13.728
		c2.439-3.658-18.564-17.961-18.564-17.961c-22.838-12.18-57.843,2.74-57.843,2.74C987.485,530.573,987.142,530.272,986.786,529.984
		z"/>
	<path style="fill:#121E2D;" d="M986.786,456.427v17.098c0.452,0.356,0.712,0.575,0.712,0.575
		c11.974-16.139,35.086-5.535,35.086-5.535c1.11-1.534-7.891-7.919-7.891-7.919C1005.446,455.468,988.759,456.304,986.786,456.427z"
		/>
	<path style="fill:#121E2D;" d="M986.786,496.637v18.317c1.302,0.904,2.082,1.466,2.082,1.466
		c18.824-25.373,48.102-12.481,48.102-12.481c1.754-2.398-10.111-10.7-10.111-10.7
		C1012.885,485.417,990.855,494.774,986.786,496.637z"/>
	<path style="fill:#596564;" d="M995.114,672.911c0,0,85.246,65.152,121.78,20.703c0,0,25.574-54.801,8.525-176.581
		c0,0-6.089-108.993,6.089-121.171c0,0-23.747,56.628-32.272,57.237c0,0-33.49,9.134-54.192,4.262c0,0-16.317-14.918-19.988-21.911
		c-0.524-0.999-0.791-1.836-0.715-2.445c0.609-4.871,7.307-12.787,10.351-12.787c3.045,0,0,0,0,0s39.579,29.836,71.241-7.916
		c0,0,31.663-30.445,26.792-59.063c0,0-13.396-37.752-37.752-48.712c0,0-15.831,9.134-16.44,18.876c0,0-7.307,17.658-6.089,24.965
		c0,0-7.307,29.836-14.614,24.356c0,0,10.148,21.717-18.47,30.141c-28.618,8.423,0,0,0,0l-13.091,3.856c0,0-2.537,6.19-6.596,4.973
		c0,0,4.871,24.762-2.842,23.95c0,0,14.512,22.326,14.512,24.153c0,1.827,2.131,12.482,0.913,12.482s16.745,17.658,13.7,25.269
		c0,0-3.653,8.829,4.262,9.134c0,0,20.398,11.265,22.834,18.267c0,0,2.436,19.18,0.304,24.965L995.114,672.911z"/>
	<path style="fill:#121E2D;" d="M987.198,339.842c0,0,21.515,4.059,37.346,35.316c0,0-22.632-41.834-25.348-50.81
		c-0.239-0.79-0.324-1.326-0.225-1.556c1.218-2.842,2.842-21.109,5.683-23.95c0,0,10.96-21.514,14.614-18.673
		c0,0,52.771,49.118,49.93,71.038l0.812-8.931c0,0-3.247-23.138-46.682-62.108c0,0,1.218-62.514,2.03-64.544
		c0,0-2.436-12.99-12.178-22.732c0,0-2.436-22.326,2.03-24.356c0,0-9.742-13.396-13.802-16.643c0,0-5.683-16.643,2.842-30.039
		c0,0,17.861-27.604,4.059-36.128c0,0-6.901-8.525-9.742-8.525l-8.119,11.366c0,0,5.683,11.772,2.03,23.138
		c-3.653,11.366-0.406,1.624-0.406,1.624s-8.525,50.336,6.901,77.127c0,0-2.03,60.89-6.089,67.385l-5.683,32.475V339.842z"/>
	<path style="fill:#596564;" d="M1093.959,300.061c0,0-6.089-23.138-14.208-26.386c0,0-22.326-33.287-34.504-37.346l0.812-2.842
		c0,0,38.97,37.752,43.435,48.306c0,0,35.722-13.396,30.445-27.604c0,0,2.436-30.039-2.842-35.722c0,0,20.703,45.059,18.267,49.524
		l-7.307-11.366c0,0-4.465,6.089,0.406,11.772c0,0-8.119-1.624-9.742-1.218c0,0-5.596,12.591-12.568,16.671
		c-0.539,0.315-1.086,0.58-1.64,0.784C1096.801,287.477,1093.553,293.566,1093.959,300.061z"/>
	<path style="fill:#9BA6A0;" d="M1146.641,323.493c0.822,2.617,1.74,5.096,2.768,7.439v0.014
		c5.494,12.563,13.673,20.756,22.879,21.427c0.411,0.041,0.822,0.055,1.233,0.055c0.712,0,1.425-0.041,2.137-0.151
		c13.262-1.671,24.263-19.002,27.866-42.293c3.644-7.974,6.425-17.249,8.083-27.373c1.11-6.836,1.699-14.057,1.699-21.523
		c0-2.959-0.096-5.864-0.288-8.741c-0.384-6.247-1.192-12.275-2.384-17.988c-6.576,2.178-12.7,6.357-18.084,12.152
		c-4.343,4.658-8.22,10.357-11.481,16.879C1162.067,275.967,1148.805,297.97,1146.641,323.493z"/>
	<path style="fill:#475152;" d="M1164.998,356.587c0,0-15.375-11.112-18.267-41.253c0,0,10.047-20.398,19.333-25.269
		c0,0,11.417-15.223,12.635-15.527c0,0,6.698,3.197,7.155,3.958l7.611-12.026c0,0,5.48,18.267,3.653,21.159
		c0,0-2.283,13.7-4.262,15.223l-1.674,4.262l-1.218,10.047c0,0-3.197,6.089-5.785,5.785c0,0,0.152-9.286,2.74-11.569l3.045-1.979
		c0,0,1.809-19.478,0.239-24.384c-0.072-0.226-0.152-0.421-0.239-0.581c-1.979-3.653-5.937,3.501-5.937,3.501
		s-7.916,18.876-8.22,19.333c-0.304,0.457-7.764,18.724-6.393,25.269c0,0-3.349,15.223,0.761,18.876c0,0,19.028-0.304,27.248-19.485
		c0,0,18.572-36.991,13.853-53.127c0,0,4.871-27.857,4.465-33.54c0,0-3.211-13.914-6.288-15.319
		c-0.205-0.094-0.41-0.132-0.613-0.106c-3.247,0.406-14.918-4.161-20.398,4.973l-10.351-1.522l50.539-29.532
		c0,0,17.049,59.368-3.653,99.555c0,0-10.351-0.913-13.091,3.958s-11.874,26.487-11.874,26.487S1183.265,366.329,1164.998,356.587z"
		/>
	<path style="fill:#888C85;" d="M1179.453,90.342l-0.603,6.425c17.728,1.356,67.118,14.481,69.365,13.728l0.753-2.041
		c-0.219-2.507-1.164-12.385-2.987-23.523c-2.521-15.358-6.713-33.072-12.988-37.155c0,0-3.658-6.48-8.371-13.906
		c-5.549-8.754-12.522-18.81-16.591-21.003c0,0-0.068,9.686-2.082,21.003c-1.48,8.275-4,17.399-8.275,24.25
		c0,0-0.343,0.822-0.945,2.219c-0.055,0.11-0.11,0.233-0.164,0.356c-0.863,1.973-2.206,4.932-3.836,8.289
		c-0.178,0.37-0.356,0.74-0.548,1.123c-1.096,2.192-2.288,4.521-3.576,6.823c-0.356,0.671-0.74,1.343-1.123,2
		c-0.137,0.26-0.288,0.507-0.438,0.754c-0.521,0.904-1.068,1.795-1.617,2.658c-0.26,0.438-0.534,0.863-0.808,1.274
		c-0.822,1.274-1.658,2.466-2.507,3.576c-0.274,0.37-0.548,0.726-0.836,1.069C1180.672,89.027,1180.056,89.712,1179.453,90.342z"/>
	<path style="fill:#888C85;" d="M1114.637,86.725L1152.409,91l5.754,1.439l0.356,0.082l5.425-4.877
		c0.302-1.178,1.055-2.672,2.48-4.549c0,0,8.522-18.071,4.261-39.786c0,0-1.713-4.37-4.439-9.44
		c-3.11-5.809-7.549-12.549-12.207-14.714c0,0-1.48,6.987-4.425,14.714c-1.822,4.768-4.206,9.837-7.151,13.7
		c0,0-14.604,33.483-20.701,35.525c0,0-0.014,0.041-0.027,0.11c-0.027,0.082-0.068,0.192-0.123,0.315
		c-0.082,0.192-0.205,0.425-0.397,0.671c-0.068,0.096-0.137,0.178-0.219,0.26c-0.74,0.781-2.137,1.562-4.754,1.274
		c-0.192-0.014-0.384-0.041-0.575-0.068L1114.637,86.725z"/>
	<path style="fill:#888C85;" d="M995.417,59.461c4.877,1.219,43.06,10.782,53.02,13.454l1.603-2.398
		c-0.37-1.644-1.836-8.179-3.644-15.468c-2.151-4.836-6.494-14.221-10.796-21.181c-2.754-4.48-5.494-7.946-7.604-8.522
		c0,0-2.041,3.644-4.946,8.522c-4.864,8.179-12.18,19.824-16.372,23.441C1006.679,57.311,1000.541,59.653,995.417,59.461z"/>
	<line style="fill:#888C85;" x1="1115.664" y1="85.656" x2="1114.637" y2="86.725"/>
	<line style="fill:#888C85;" x1="1050.04" y1="70.518" x2="1048.437" y2="72.915"/>
	<line style="fill:#888C85;" x1="1163.944" y1="87.643" x2="1158.519" y2="92.52"/>
	<line style="fill:#888C85;" x1="1179.453" y1="90.342" x2="1178.85" y2="96.767"/>
	<path style="fill:#9BA6A0;" d="M1222.951,313.845c-0.557,0.293-1.092,0.591-1.635,0.909c-1.199,0.697-2.341,1.43-3.427,2.2
		l-0.014,0.007c-2.552,1.767-4.858,3.728-6.895,5.857c0,0-0.011-0.003-0.014,0.007c-0.196,0.195-0.393,0.39-0.582,0.598
		c-4.554,4.895-7.842,10.569-9.8,16.645c-5.187,5.406-8.349,12.021-9.258,18.899c-0.003,0.041-0.005,0.082-0.008,0.123
		c-0.925,7.155,0.597,14.616,4.794,21.292c0.431,0.703,0.9,1.396,1.397,2.076c0.283,0.391,0.58,0.776,0.88,1.151
		c6.432,8.09,16.041,13.087,26.323,14.493l0.011,0.003c0.011,0.003,0.035-0.001,0.046,0.002c0.509,0.079,1.024,0.139,1.542,0.19
		l0.014-0.007c2.028,0.201,4.057,0.266,6.101,0.19c0.778-0.626,1.51-1.287,2.206-1.978c1.062-1.037,2.034-2.151,2.934-3.326
		l0.003-0.009c8.463-11.115,9.988-28.232,4.801-47.062c1.407-5.23,1.923-10.781,1.529-16.429c-0.185-2.842-0.607-5.707-1.264-8.566
		L1222.951,313.845z"/>
	<path style="fill:#475152;" d="M1201.076,391.906c0,0,10.195,6.589,23.651,6.202c0.011,0,0.033-0.01,0.044,0
		c3.127-0.099,6.455-0.567,9.861-1.61c0.768-0.229,1.547-0.497,2.326-0.785c0,0,0.267-0.954,0.612-2.534v-0.01
		c1.091-4.979,3.005-16.19,0.2-24.081c0,0,0.646-15.832-0.022-17.075c0,0-6.444-5.317-7.19-5.496l1.491-11.171
		c0,0-14.09,0.795-14.446,3.469c0,0-6.121,6.659-5.609,9.044l-1.235,2.982l-4.808,4.452c0,0-1.213,5.029,0.757,7.384
		c0,0,5.12-3.19,4.608-6.391l-0.99-3.548c0,0,9.694-8.09,13.545-8.219c0.178,0,0.334,0.01,0.49,0.04
		c3.439,0.686,2.159,6.778,2.159,6.778s-5.142,13.705-5.186,14.143c-0.045,0.437-5.142,13.507-9.783,14.351
		c0,0-6.244,8.169-11.152,5.456c0,0-9.661-13.457-9.082-26.198c0.011-0.04,0.011-0.08,0.011-0.119
		c0.1-2.018,0.456-4.005,1.146-5.923c0,0,7.167-26.914,18.497-30.223c0-0.01,0.011-0.01,0.011-0.01
		c0.59-0.179,1.169-0.288,1.77-0.328c0,0,2.259-2.524,5.131-5.526l0.011-0.01c1.113-1.193,2.337-2.455,3.55-3.657l-4.196-1.55
		l-21.035,20.006c-1.146,4.79-6.567,19.45-6.567,19.45S1182.934,377.763,1201.076,391.906z"/>
	<line style="fill:none;" x1="1198.099" y1="357.276" x2="1199.956" y2="358.041"/>
	<line style="fill:none;" x1="1217.247" y1="311.741" x2="1196.212" y2="331.747"/>
	<path style="fill:#9BA6A0;" d="M1176.549,490.334c0.463-0.426,0.903-0.853,1.345-1.3c0.979-0.983,1.893-1.986,2.743-3.01
		l0.012-0.01c2.01-2.366,3.731-4.855,5.151-7.437c0,0,0.011,0,0.012-0.01c0.139-0.239,0.279-0.478,0.408-0.728
		c3.137-5.904,4.849-12.235,5.174-18.61c3.617-6.561,4.965-13.768,4.069-20.648c-0.008-0.04-0.016-0.08-0.024-0.121
		c-0.952-7.151-4.347-13.967-10.125-19.335c-0.598-0.568-1.23-1.116-1.885-1.645c-0.374-0.305-0.761-0.6-1.148-0.885
		c-8.301-6.156-18.875-8.506-29.171-7.211l-0.011,0c-0.011,0-0.034,0.01-0.045,0.01c-0.512,0.055-1.025,0.129-1.539,0.214
		l-0.012,0.01c-2.012,0.33-3.989,0.79-5.943,1.391c-0.59,0.806-1.127,1.633-1.621,2.48c-0.758,1.276-1.41,2.603-1.976,3.971
		l-0.001,0.01c-5.309,12.922-2.366,29.853,7.504,46.708c-0.01,5.416,0.924,10.912,2.761,16.267c0.912,2.698,2.059,5.358,3.431,7.95
		L1176.549,490.334z"/>
	<path style="fill:#475152;" d="M1177.544,409.272c0,0-11.55-3.736-24.45,0.11c-0.011,0.003-0.03,0.018-0.043,0.011
		c-2.996,0.903-6.09,2.213-9.112,4.1c-0.683,0.419-1.366,0.879-2.045,1.359c0,0-0.012,0.991,0.062,2.606l0.003,0.01
		c0.231,5.092,1.274,16.417,6.019,23.318c0,0,3.461,15.463,4.427,16.491c0,0,7.598,3.475,8.364,3.455l1.441,11.178
		c0,0,13.408-4.403,13.062-7.078c0,0,4.196-8.013,3.086-10.185l0.424-3.199l3.497-5.542c0,0-0.125-5.172-2.636-6.939
		c0,0-4.123,4.403-2.803,7.363l1.872,3.172c0,0-7.279,10.317-10.966,11.435c-0.172,0.046-0.325,0.077-0.483,0.088
		c-3.5,0.225-3.835-5.992-3.835-5.992s1.432-14.568,1.362-15.002c-0.07-0.434,1.483-14.376,5.749-16.389
		c0,0,3.925-9.504,9.367-8.149c0,0,12.805,10.509,15.533,22.968c0,0.041,0.01,0.08,0.02,0.118c0.424,1.975,0.592,3.987,0.421,6.019
		c0,0,0.019,27.852-10.074,33.972c0.003,0.01-0.008,0.012-0.008,0.012c-0.524,0.325-1.055,0.58-1.625,0.773
		c0,0-1.532,3.022-3.531,6.663l-0.008,0.012c-0.768,1.439-1.625,2.975-2.487,4.45l4.454,0.415l15.161-24.756
		c-0.128-4.924,1.326-20.486,1.326-20.486S1198.72,418.256,1177.544,409.272z"/>
	<line style="fill:none;" x1="1182.602" y1="490.895" x2="1197.764" y2="466.139"/>
	<path style="fill:#9BA6A0;" d="M1090.538,776.753c0.507,5.494,2.521,10.727,5.795,15.591c2.795,4.151,6.521,8.028,11.015,11.522
		c0.164,0.137,0.343,0.26,0.507,0.397c1.206,0.918,2.466,1.808,3.781,2.685c6.357,8.974,18.262,16.399,33.36,20.934
		c1.219,0.891,2.535,1.699,3.918,2.439c10.275,1.959,21.578,3.041,33.442,3.041c1.548,0,3.096-0.014,4.631-0.055
		c9.385-0.219,18.372-1.123,26.715-2.589c4.699-0.836,9.207-1.849,13.454-3.014c0.521-1.685,0.808-3.411,0.849-5.179
		c0.014-0.192,0.014-0.397,0.014-0.589c0-2.767-0.575-5.453-1.672-8.042c-0.37-0.863-0.795-1.713-1.274-2.548
		c-1.151-2.028-2.63-3.973-4.411-5.836c-0.411-0.425-0.836-0.849-1.274-1.274c-3.37-6.22-9.933-11.645-18.591-15.701
		c-7.042-6.288-17.605-10.289-29.401-10.289c-6.371,0-12.385,1.164-17.66,3.22c-1.151,0.452-2.26,0.945-3.343,1.48
		c-0.014,0.151-0.014,0.315-0.014,0.479c0,1.26,0.096,2.493,0.274,3.713c1.672,11.659,11.18,21.427,24.236,25.921
		c-15.427-2.206-29.428-6.124-41.197-11.33c-4.617-2.041-8.891-4.274-12.769-6.699c-0.945-0.576-1.849-1.165-2.74-1.767
		c-4-2.713-7.508-5.617-10.453-8.686c-1.699-1.74-3.206-3.548-4.535-5.384c-3.083-4.316-5.11-8.891-5.946-13.632
		C1095.703,769.52,1093.443,773.273,1090.538,776.753z"/>
	<path style="fill:#122032;" d="M1176.77,799.36c0,0-5.277-2.436-4.465-4.465c0,0,19.485-8.119,28.01,16.643
		c0,0,3.247,7.713-17.049,6.089c0,0-60.89-14.614-88.088-42.623c0,0,17.861-43.029,13.802-53.989c0,0-1.624-14.614-3.247-14.614
		l6.089-5.683c0,0,10.554,13.802,33.693,4.465c0,0,19.891-14.614,19.891-19.079c0,0,2.436,30.445,11.772,30.445
		c0,0,21.109-8.525,17.861-17.049c0,0,22.732,12.178,25.574,15.831c0,0-0.406,52.366-7.713,58.455c0,0,20.703,32.069,15.425,40.188
		c0,0-15.425-21.92-38.158-32.475c0,0-24.356-7.713-33.286-1.624c0,0-12.178,9.742,0.812,20.703c0,0,19.485,10.148,25.168,9.742
		c0,0,19.485,4.465,10.96-4.871C1193.819,805.449,1182.859,794.489,1176.77,799.36z"/>
	<path style="fill:#68716F;" d="M1228.628,203.753c0,0-25.066-42.928-57.541-51.858c0,0,12.99-5.683-4.059-14.614
		c0,0-77.128-30.851-94.989-19.485c0,0-8.931-0.812-5.683,8.119c0,0,29.227,40.593,29.227,43.029c0,0,19.485,30.851,17.861,39.782
		c0,0-22.732-50.336-71.444-51.148c0,0,23.544-1.624,47.9,9.742c0,0-27.604-46.276-48.712-49.524c0,0-21.109-7.307-21.109-0.812
		l-10.554-5.683c0,0,18.061-46.849-14.108-51.84c-32.169-4.991,3.553-0.932,3.553-0.932s31.663,16.237,27.604,30.039
		c0,0-3.247,16.237-9.742,18.673c0,0,34.099-1.624,41.405,8.931c0,0-1.624-25.98-6.495-30.039c0,0,10.554-14.614,12.99,10.554
		l-2.436,7.307c0,0,12.99-14.614,46.276,0c0,0,66.573,9.742,143.701,73.068l3.247,19.485L1228.628,203.753z"/>
	<path style="fill:#5F6765;" d="M1093.959,161.637c0,0,59.266-8.119,77.127,4.871c0,0,36.534,48.712,30.851,52.771l-23.849,14.005
		l10.351,1.522c0,0,32.17-12.28,5.379,6.393c0,0-51.96,45.16-47.088,74.134c0,0,1.624-41.659-6.495-44.095
		C1140.236,271.239,1107.761,168.944,1093.959,161.637z"/>
	<path style="fill:#37494F;" d="M1228.729,560.265c0,0-24.356-26.792-37.346-40.593c0,0,1.624-34.098-1.624-36.534
		c0,0,19.485-38.97,4.059-57.643l-4.871-13.802l15.426-17.861l11.366,3.247l-12.99,28.415l-0.812,13.802l22.789-41.189
		c0,0,19.428-2.652,21.052-17.266l-3.247,40.593v20.297l-11.366-38.158l-18.673,26.792l-5.683,38.158
		c0,0,17.049,16.237,23.544,22.732c0,0-1.624,33.287-9.742,36.534C1220.61,527.79,1222.234,535.097,1228.729,560.265z"/>
	<path style="fill:#38464F;" d="M1186.512,367.04c0,0-8.931,38.97-6.495,38.97l-8.119-0.812l0.812-31.663
		c0,0-3.248-8.931-8.931,8.931l-17.861,25.168c0,0-13.802,20.297-8.931,33.287l12.476,23.259c0,0,2.129,22.982,6.193,24.217
		c4.063,1.236-21.916-6.071-30.035,15.849c-8.119,21.92-2.436,3.247-2.436,3.247s4.871-132.335,24.356-154.255
		c0,0-3.247,17.861-5.683,24.356l3.248,19.485l30.039-35.722L1186.512,367.04z"/>
	<path style="fill:#ACB0AB;" d="M1239.282,1025.468c0,6.604,0.247,13.098,0.74,19.482h100.491v-95.176l-1.069-0.219l-2.877-3.658
		l-12.138-15.427c0,0,4.055-44.649,0.808-49.924c0,0,0.288-1.206,0.452-3.261c0.164-2.028,0.192-4.905-0.301-8.275
		c-1.589,0.288-3.165,0.658-4.727,1.082c-17.619,4.713-33.62,17.057-46.677,34.881c-2.713,3.658-5.275,7.549-7.686,11.645
		C1249.557,944.897,1239.282,983.258,1239.282,1025.468z"/>
	<path style="fill:#6C7272;" d="M1240.022,1044.95c-0.493-6.384-0.74-12.878-0.74-19.482c0-27.181,4.261-52.76,11.769-75.078
		c4.137-12.344,9.289-23.701,15.248-33.771c1.411-2.398,2.863-4.713,4.384-6.96c1.068-1.603,2.178-3.165,3.302-4.685
		c13.056-17.824,29.058-30.168,46.677-34.881c1.562-0.425,3.137-0.795,4.727-1.082c-0.247-1.617-0.617-3.329-1.151-5.124
		c-1.096-3.713-2.905-7.754-5.823-11.796c-0.288-0.397-0.589-0.781-0.891-1.178c0,0-0.288-2.261-1.479-5.329
		c-1.699,0.534-3.398,1.123-5.069,1.767c-17.043,6.48-32.785,18.18-46.54,33.99c-2.658,3.055-5.234,6.275-7.741,9.631
		c-27.757,37.21-45.649,92.271-46.595,153.977H1240.022z"/>
	<path id="left" style="fill:#0D1E2E;" d="M940.074,408.243c0,11.768-14.358,21.304-32.072,21.304
		c-17.714,0-32.072-9.535-32.072-21.304c0-11.769,14.358-21.318,32.072-21.318c2.124,0,4.192,0.137,6.206,0.411
		c2.274,7.7,12.056,14.111,25.359,17.167C939.91,405.722,940.074,406.969,940.074,408.243z"/>
	<ellipse id="pupil_R" style="fill:#00030E;" cx="905.972" cy="416.767" rx="12.178" ry="5.074"/>
	<path style="fill:none;stroke:#0D1E2E;stroke-width:1.0073;stroke-miterlimit:10;" d="M987.162,573.866
		c0,3.083-0.206,6.11-0.617,9.097v-18.112c0.206,1.466,0.356,2.932,0.452,4.425C987.107,570.797,987.162,572.331,987.162,573.866z"
		/>
	<path style="fill:none;stroke:#0D1E2E;stroke-width:1.0073;stroke-miterlimit:10;" d="M989.656,635.668
		c0,3.302-0.315,6.562-0.932,9.741c-0.027,0.192-0.068,0.37-0.11,0.548c-0.507,2.507-1.206,4.973-2.069,7.398v-35.401
		C988.573,623.625,989.656,629.557,989.656,635.668z"/>
	<path id="left_2_" style="fill:#0D1E2E;" d="M1033.065,408.243c0,11.768,14.358,21.304,32.072,21.304s32.072-9.535,32.072-21.304
		c0-11.769-14.358-21.318-32.072-21.318c-2.124,0-4.192,0.137-6.206,0.411c-2.274,7.7-12.056,14.111-25.359,17.167
		C1033.23,405.722,1033.065,406.969,1033.065,408.243z"/>
	<ellipse id="pupil_R_2_" style="fill:#00030E;" cx="1067.167" cy="416.767" rx="12.178" ry="5.074"/>
	<path style="fill:none;stroke:#0D1E2E;stroke-width:1.0073;stroke-miterlimit:10;" d="M985.977,573.866
		c0,3.083,0.206,6.11,0.617,9.097v-18.112c-0.205,1.466-0.356,2.932-0.452,4.425C986.032,570.797,985.977,572.331,985.977,573.866z"
		/>
	<path style="fill:none;stroke:#0D1E2E;stroke-width:1.0073;stroke-miterlimit:10;" d="M983.484,635.668
		c0,3.302,0.315,6.562,0.932,9.741c0.027,0.192,0.068,0.37,0.11,0.548c0.507,2.507,1.206,4.973,2.069,7.398v-35.401
		C984.566,623.625,983.484,629.557,983.484,635.668z"/>
	<path style="fill:#121E2D;stroke:#121E2D;stroke-miterlimit:10;" d="M957.977,609.532c0,7.727-1.576,15.125-4.453,21.962
		c-2.425,5.754-5.74,11.097-9.851,15.933c-0.219,0.247-0.438,0.507-0.658,0.767c-3.137,3.576-6.699,6.85-10.631,9.741
		c-4.425,3.288-9.303,6.097-14.536,8.357c-0.151,0.068-0.315,0.137-0.466,0.192c-4.206,1.781-8.631,3.22-13.248,4.247
		c-1.863,0.425-3.768,0.767-5.686,1.055c-3.178-1.014-6.234-2.206-9.165-3.589c-2.041-0.959-4.014-2-5.919-3.124
		c-14.522-8.576-24.866-21.784-27.935-37.059c-0.63-3.096-0.959-6.288-0.959-9.549c0-11.179,3.836-21.592,10.481-30.387
		c-1.014,2.946-1.548,5.987-1.548,9.083c0,4.617,1.178,9.083,3.37,13.344c2.699,5.261,6.987,10.193,12.549,14.659
		c2.219,1.795,4.644,3.507,7.261,5.138c0.808,0.507,1.644,1,2.493,1.48c2.302,1.836,4.836,3.548,7.563,5.11
		c3.727,2.137,7.837,4,12.248,5.549c0.014,0.014,0.027,0.027,0.041,0.014c4.055,2.672,9.001,4.22,14.344,4.22
		c0.63,0,1.274-0.014,1.891-0.068c0.274-0.014,0.534-0.041,0.795-0.069H926c1.069-0.109,2.124-0.274,3.137-0.507
		c7.056-1.575,12.933-5.919,16.235-11.727c0.014-0.014,0.027-0.027,0.027-0.041c1.808-2.384,2.836-5.151,2.836-8.083
		c0-0.384-0.014-0.753-0.055-1.137c0,0,0-0.014,0-0.027c0.041-0.493,0.055-0.986,0.055-1.48c0-12.769-11.18-23.126-24.962-23.126
		c-5.905,0-11.344,1.904-15.618,5.083c-1.151-0.493-2.343-0.932-3.548-1.315c3.754-5.22,8.672-9.755,14.44-13.358
		c2.124-0.37,4.316-0.562,6.549-0.562c5.384,0,10.508,1.096,15.153,3.083c7.371,3.124,13.55,8.467,17.714,15.194
		C957.977,608.86,957.977,609.203,957.977,609.532z"/>
	<path style="fill:#425361;" d="M989.656,635.668c0,3.302-0.315,6.562-0.932,9.741c-0.027,0.192-0.068,0.37-0.11,0.548
		c-0.507,2.507-1.206,4.973-2.069,7.398c-11.33,31.689-52.445,55.171-101.423,55.171c-5.22,0-10.344-0.26-15.358-0.781
		c14.714-1.644,28.373-5.809,40.224-11.933c0.502-0.253,0.99-0.52,1.482-0.783c0.591-0.316,1.176-0.636,1.755-0.963
		c0.479-0.271,0.962-0.54,1.435-0.817c10.782-6.288,19.838-14.248,26.524-23.4c2.548-3.494,4.768-7.165,6.59-10.988
		c3.644-7.576,5.781-15.755,6.11-24.263c0-0.014,0-0.014,0-0.027c0.041-0.781,0.055-1.562,0.055-2.357v-0.164
		c0.164-0.397,0.329-0.781,0.479-1.178c2.576-6.508,3.973-13.495,3.973-20.783c0-0.329,0-0.671-0.014-1
		c-0.617-0.986-1.274-1.945-1.973-2.877c-0.027-0.055-0.068-0.096-0.096-0.137c-4.028-5.316-9.412-9.535-15.646-12.18
		c-4.644-1.987-9.768-3.083-15.153-3.083c-2.233,0-4.425,0.192-6.549,0.562c-5.644,3.521-10.481,7.946-14.18,13.029
		c-0.096,0.11-0.178,0.219-0.26,0.329c1.206,0.384,2.398,0.822,3.548,1.315c4.274-3.179,9.714-5.083,15.618-5.083
		c8.508,0,16.016,3.946,20.523,9.974c2.795,3.726,4.439,8.261,4.439,13.152c0,0.493-0.014,0.986-0.055,1.48c0,0.014,0,0.027,0,0.027
		c-0.219,3.315-1.219,6.439-2.781,9.22c0,0.014-0.014,0.027-0.027,0.041c-3.302,5.809-9.179,10.152-16.235,11.727
		c-1.014,0.233-2.069,0.397-3.137,0.507h-0.041c-0.26,0.027-0.521,0.055-0.795,0.069c-0.617,0.055-1.26,0.068-1.891,0.068
		c-5.343,0-10.289-1.548-14.344-4.22c-0.014,0.014-0.027,0-0.041-0.014c-4.412-1.548-8.522-3.411-12.248-5.549
		c-2.726-1.562-5.261-3.274-7.563-5.11c-0.849-0.48-1.685-0.973-2.493-1.48c-2.617-1.63-5.042-3.343-7.261-5.138
		c-0.055-0.123-0.096-0.233-0.137-0.356c-1.822-4.316-2.795-8.891-2.795-13.645c0-6.275,1.699-12.248,4.768-17.728
		c0.274-0.48,0.562-0.959,0.836-1.425c0.014-0.027,0.014-0.041,0.041-0.055c0.603-0.973,1.26-1.932,1.945-2.877
		c0.685-0.945,1.425-1.863,2.206-2.767c0.288-0.329,0.575-0.658,0.877-0.986c0.507-0.562,1.041-1.11,1.576-1.658
		c0.37-0.37,0.74-0.74,1.123-1.082c0.754-0.712,1.521-1.411,2.329-2.082c0.685-0.576,1.384-1.137,2.096-1.685
		c0.356-0.274,0.726-0.548,1.096-0.808c0.37-0.274,0.74-0.534,1.11-0.795c4.535-3.178,9.7-5.877,15.358-8.001
		c2.713-1.014,5.535-1.904,8.453-2.644h0.014c26.154,6.576,47.458,20.222,59.171,37.621c2.822,4.192,5.097,8.617,6.741,13.207
		C988.573,623.625,989.656,629.557,989.656,635.668z"/>
	<path id="light_nose" style="fill:#B2B7B4;" d="M954.693,628.393c-0.068,0.795-0.164,1.575-0.26,2.356
		c-0.151,1.302-0.343,2.576-0.548,3.85c-0.014,0.082-0.027,0.178-0.055,0.247c0,0.027-0.014,0.055-0.014,0.082
		c0,0.014,0,0.014,0,0.027c-3.384,19.797-13.344,36.854-27.127,47.978c-2,1.617-4.083,3.11-6.234,4.466l-0.014,0.014
		c-1.877,2.124-3.85,4.096-5.85,5.891c-0.014,0.014-0.014,0.014-0.027,0.027c-1.466,0.863-2.973,1.685-4.521,2.48
		c-4.411,0.288-8.878,0.438-13.413,0.438h-0.836c-3.48-0.014-6.919-0.123-10.316-0.315h-0.014
		c-11.892-5.11-21.729-13.413-28.072-23.647c0-0.014-0.014-0.014-0.014-0.014c-11.357-8.59-19.715-21.126-23.153-35.634
		c-1.123-4.768-1.726-9.755-1.726-14.878c0-32.223,23.66-58.774,54.13-62.309c-10.207,8.535-17.92,18.893-22.236,30.332
		c0.151-0.562,0.315-1.11,0.507-1.658c-6.645,8.796-10.481,19.208-10.481,30.387c0,1.493,0.068,2.959,0.206,4.425
		c0.164,1.726,0.411,3.439,0.754,5.124c1.644,8.193,5.384,15.796,10.741,22.4h0.014c4.617,5.713,10.453,10.686,17.18,14.659
		c1.904,1.123,3.877,2.165,5.919,3.124c2.932,1.384,5.987,2.576,9.166,3.589c0.397-0.055,0.795-0.123,1.192-0.192
		c1.507-0.247,3.014-0.521,4.494-0.863c4.617-1.027,9.042-2.466,13.248-4.247c0.151-0.055,0.315-0.123,0.466-0.192
		c5.233-2.261,10.111-5.069,14.536-8.357c3.754-2.754,7.165-5.864,10.207-9.261v-0.014c0.151-0.151,0.288-0.315,0.425-0.466
		c0.219-0.26,0.438-0.521,0.658-0.767c2.891-3.398,5.398-7.056,7.453-10.933c0.877-1.63,1.685-3.302,2.398-5.001
		c0.247-0.589,0.493-1.192,0.712-1.795C954.364,629.297,954.528,628.859,954.693,628.393z"/>
	<path style="fill:#B2B7B4;" d="M987.162,573.866c0,3.083-0.206,6.11-0.617,9.097c-0.301,2.261-0.712,4.494-1.233,6.699v0.027
		c-1.247,5.234-3.096,10.248-5.508,15.057c-0.014,0.027-0.027,0.055-0.041,0.082c-5.864-8.713-14.125-16.495-24.208-22.907
		c-4.096-2.603-8.48-4.987-13.125-7.11c-5.11-2.357-10.536-4.384-16.235-6.083c-1.836-0.562-3.713-1.069-5.617-1.548h-0.014
		c-2.918,0.74-5.74,1.63-8.453,2.644c-5.631,2.11-10.782,4.795-15.303,7.946c-0.37,0.26-0.74,0.521-1.11,0.795
		c-0.37,0.26-0.74,0.534-1.096,0.808c-0.712,0.548-1.411,1.11-2.096,1.685c-0.808,0.671-1.576,1.37-2.329,2.082
		c-0.384,0.356-0.753,0.712-1.123,1.082c-0.534,0.548-1.069,1.096-1.576,1.658c-0.301,0.329-0.589,0.658-0.877,0.986
		c-0.781,0.904-1.521,1.822-2.206,2.767c-0.699,0.932-1.356,1.904-1.945,2.877c-0.027,0.014-0.027,0.027-0.041,0.055
		c-0.301,0.466-0.575,0.945-0.836,1.425c-0.548,0.932-1.028,1.891-1.48,2.863c-2.165,4.685-3.343,9.7-3.343,14.92
		c0,4.713,0.959,9.248,2.74,13.522c0.014,0.041,0.041,0.082,0.055,0.123c-0.096-0.055-0.178-0.137-0.274-0.206
		c-5.562-4.466-9.851-9.398-12.549-14.659c-0.479-0.918-0.904-1.863-1.274-2.809c-1.37-3.398-2.096-6.919-2.096-10.536
		c0-2.493,0.343-4.959,1.014-7.357c0-0.014,0.014-0.027,0.014-0.041c0-0.014,0.014-0.014,0.014-0.027
		c0.041-0.096,0.082-0.206,0.123-0.301c4.329-11.316,12.001-21.578,22.112-30.031c6.083-5.083,13.043-9.535,20.715-13.221
		c0.466-0.219,0.932-0.438,1.397-0.644c11.001-5.083,23.373-8.59,36.607-10.07c2.987,0.781,5.919,1.63,8.782,2.548
		c10.563,3.37,20.304,7.645,28.99,12.686c0.904,2.521,1.671,5.096,2.26,7.727c0.507,2.096,0.891,4.22,1.165,6.371
		c0.206,1.466,0.356,2.932,0.452,4.425C987.107,570.797,987.162,572.331,987.162,573.866z"/>
	<path style="fill:#121E2D;stroke:#121E2D;stroke-miterlimit:10;" d="M1015.163,609.532c0,7.727,1.576,15.125,4.453,21.962
		c2.425,5.754,5.74,11.097,9.851,15.933c0.219,0.247,0.438,0.507,0.658,0.767c3.137,3.576,6.699,6.85,10.631,9.741
		c4.425,3.288,9.303,6.097,14.536,8.357c0.151,0.068,0.315,0.137,0.466,0.192c4.206,1.781,8.631,3.22,13.248,4.247
		c1.863,0.425,3.768,0.767,5.686,1.055c3.178-1.014,6.234-2.206,9.165-3.589c2.041-0.959,4.014-2,5.919-3.124
		c14.522-8.576,24.866-21.784,27.935-37.059c0.63-3.096,0.959-6.288,0.959-9.549c0-11.179-3.836-21.592-10.481-30.387
		c1.014,2.946,1.548,5.987,1.548,9.083c0,4.617-1.178,9.083-3.37,13.344c-2.699,5.261-6.987,10.193-12.55,14.659
		c-2.219,1.795-4.644,3.507-7.261,5.138c-0.808,0.507-1.644,1-2.493,1.48c-2.302,1.836-4.836,3.548-7.563,5.11
		c-3.727,2.137-7.837,4-12.248,5.549c-0.014,0.014-0.027,0.027-0.041,0.014c-4.055,2.672-9.001,4.22-14.344,4.22
		c-0.63,0-1.274-0.014-1.891-0.068c-0.274-0.014-0.534-0.041-0.795-0.069h-0.041c-1.069-0.109-2.124-0.274-3.137-0.507
		c-7.056-1.575-12.933-5.919-16.235-11.727c-0.014-0.014-0.027-0.027-0.027-0.041c-1.808-2.384-2.836-5.151-2.836-8.083
		c0-0.384,0.014-0.753,0.055-1.137c0,0,0-0.014,0-0.027c-0.041-0.493-0.055-0.986-0.055-1.48c0-12.769,11.179-23.126,24.962-23.126
		c5.905,0,11.344,1.904,15.618,5.083c1.151-0.493,2.343-0.932,3.548-1.315c-3.754-5.22-8.672-9.755-14.44-13.358
		c-2.124-0.37-4.316-0.562-6.549-0.562c-5.384,0-10.508,1.096-15.152,3.083c-7.371,3.124-13.55,8.467-17.714,15.194
		C1015.163,608.86,1015.163,609.203,1015.163,609.532z"/>
	<path style="fill:#425361;" d="M983.484,635.668c0,3.302,0.315,6.562,0.932,9.741c0.027,0.192,0.068,0.37,0.11,0.548
		c0.507,2.507,1.206,4.973,2.069,7.398c11.33,31.689,52.445,55.171,101.423,55.171c5.22,0,10.344-0.26,15.358-0.781
		c-14.714-1.644-28.373-5.809-40.224-11.933c-0.502-0.253-0.99-0.52-1.482-0.783c-0.591-0.316-1.176-0.636-1.755-0.963
		c-0.479-0.271-0.962-0.54-1.435-0.817c-10.782-6.288-19.838-14.248-26.524-23.4c-2.548-3.494-4.768-7.165-6.59-10.988
		c-3.644-7.576-5.781-15.755-6.11-24.263c0-0.014,0-0.014,0-0.027c-0.041-0.781-0.055-1.562-0.055-2.357v-0.164
		c-0.164-0.397-0.329-0.781-0.479-1.178c-2.576-6.508-3.973-13.495-3.973-20.783c0-0.329,0-0.671,0.014-1
		c0.617-0.986,1.274-1.945,1.973-2.877c0.027-0.055,0.068-0.096,0.096-0.137c4.028-5.316,9.412-9.535,15.646-12.18
		c4.644-1.987,9.768-3.083,15.153-3.083c2.233,0,4.425,0.192,6.549,0.562c5.645,3.521,10.481,7.946,14.18,13.029
		c0.096,0.11,0.178,0.219,0.26,0.329c-1.206,0.384-2.398,0.822-3.548,1.315c-4.274-3.179-9.714-5.083-15.618-5.083
		c-8.508,0-16.016,3.946-20.523,9.974c-2.795,3.726-4.439,8.261-4.439,13.152c0,0.493,0.014,0.986,0.055,1.48
		c0,0.014,0,0.027,0,0.027c0.219,3.315,1.219,6.439,2.781,9.22c0,0.014,0.014,0.027,0.027,0.041
		c3.302,5.809,9.179,10.152,16.235,11.727c1.014,0.233,2.069,0.397,3.137,0.507h0.041c0.26,0.027,0.521,0.055,0.795,0.069
		c0.616,0.055,1.26,0.068,1.891,0.068c5.343,0,10.289-1.548,14.344-4.22c0.014,0.014,0.027,0,0.041-0.014
		c4.411-1.548,8.522-3.411,12.248-5.549c2.726-1.562,5.261-3.274,7.563-5.11c0.849-0.48,1.685-0.973,2.493-1.48
		c2.617-1.63,5.042-3.343,7.261-5.138c0.055-0.123,0.096-0.233,0.137-0.356c1.822-4.316,2.795-8.891,2.795-13.645
		c0-6.275-1.699-12.248-4.768-17.728c-0.274-0.48-0.562-0.959-0.836-1.425c-0.014-0.027-0.014-0.041-0.041-0.055
		c-0.603-0.973-1.26-1.932-1.945-2.877s-1.425-1.863-2.206-2.767c-0.288-0.329-0.575-0.658-0.877-0.986
		c-0.507-0.562-1.041-1.11-1.576-1.658c-0.37-0.37-0.74-0.74-1.123-1.082c-0.754-0.712-1.521-1.411-2.329-2.082
		c-0.685-0.576-1.384-1.137-2.096-1.685c-0.356-0.274-0.726-0.548-1.096-0.808c-0.37-0.274-0.74-0.534-1.11-0.795
		c-4.535-3.178-9.7-5.877-15.358-8.001c-2.713-1.014-5.535-1.904-8.453-2.644h-0.014c-26.154,6.576-47.458,20.222-59.172,37.621
		c-2.822,4.192-5.097,8.617-6.741,13.207C984.566,623.625,983.484,629.557,983.484,635.668z"/>
	<path id="light_nose_1_" style="fill:#B2B7B4;" d="M1018.447,628.393c0.068,0.795,0.164,1.575,0.26,2.356
		c0.151,1.302,0.343,2.576,0.548,3.85c0.014,0.082,0.027,0.178,0.055,0.247c0,0.027,0.014,0.055,0.014,0.082
		c0,0.014,0,0.014,0,0.027c3.384,19.797,13.344,36.854,27.127,47.978c2,1.617,4.083,3.11,6.234,4.466l0.014,0.014
		c1.877,2.124,3.85,4.096,5.85,5.891c0.014,0.014,0.014,0.014,0.027,0.027c1.466,0.863,2.973,1.685,4.521,2.48
		c4.411,0.288,8.878,0.438,13.412,0.438h0.836c3.48-0.014,6.919-0.123,10.316-0.315h0.014c11.892-5.11,21.729-13.413,28.072-23.647
		c0-0.014,0.014-0.014,0.014-0.014c11.358-8.59,19.715-21.126,23.153-35.634c1.123-4.768,1.726-9.755,1.726-14.878
		c0-32.223-23.66-58.774-54.13-62.309c10.207,8.535,17.92,18.893,22.236,30.332c-0.151-0.562-0.315-1.11-0.507-1.658
		c6.645,8.796,10.481,19.208,10.481,30.387c0,1.493-0.068,2.959-0.205,4.425c-0.164,1.726-0.411,3.439-0.754,5.124
		c-1.644,8.193-5.384,15.796-10.741,22.4h-0.014c-4.617,5.713-10.453,10.686-17.18,14.659c-1.904,1.123-3.877,2.165-5.919,3.124
		c-2.932,1.384-5.987,2.576-9.166,3.589c-0.397-0.055-0.795-0.123-1.192-0.192c-1.507-0.247-3.014-0.521-4.494-0.863
		c-4.617-1.027-9.042-2.466-13.248-4.247c-0.151-0.055-0.315-0.123-0.466-0.192c-5.234-2.261-10.111-5.069-14.536-8.357
		c-3.754-2.754-7.165-5.864-10.207-9.261v-0.014c-0.151-0.151-0.288-0.315-0.425-0.466c-0.219-0.26-0.438-0.521-0.658-0.767
		c-2.891-3.398-5.398-7.056-7.453-10.933c-0.877-1.63-1.685-3.302-2.398-5.001c-0.247-0.589-0.493-1.192-0.712-1.795
		C1018.776,629.297,1018.612,628.859,1018.447,628.393z"/>
	<path style="fill:#B2B7B4;" d="M985.977,573.866c0,3.083,0.206,6.11,0.617,9.097c0.301,2.261,0.712,4.494,1.233,6.699v0.027
		c1.247,5.234,3.096,10.248,5.508,15.057c0.014,0.027,0.027,0.055,0.041,0.082c5.864-8.713,14.125-16.495,24.208-22.907
		c4.096-2.603,8.48-4.987,13.125-7.11c5.11-2.357,10.536-4.384,16.235-6.083c1.836-0.562,3.713-1.069,5.617-1.548h0.014
		c2.918,0.74,5.74,1.63,8.453,2.644c5.631,2.11,10.782,4.795,15.303,7.946c0.37,0.26,0.74,0.521,1.11,0.795
		c0.37,0.26,0.74,0.534,1.096,0.808c0.712,0.548,1.411,1.11,2.096,1.685c0.808,0.671,1.576,1.37,2.329,2.082
		c0.384,0.356,0.754,0.712,1.123,1.082c0.534,0.548,1.069,1.096,1.576,1.658c0.301,0.329,0.589,0.658,0.877,0.986
		c0.781,0.904,1.521,1.822,2.206,2.767c0.699,0.932,1.356,1.904,1.945,2.877c0.027,0.014,0.027,0.027,0.041,0.055
		c0.301,0.466,0.575,0.945,0.836,1.425c0.548,0.932,1.027,1.891,1.48,2.863c2.165,4.685,3.343,9.7,3.343,14.92
		c0,4.713-0.959,9.248-2.74,13.522c-0.014,0.041-0.041,0.082-0.055,0.123c0.096-0.055,0.178-0.137,0.274-0.206
		c5.562-4.466,9.85-9.398,12.549-14.659c0.479-0.918,0.904-1.863,1.274-2.809c1.37-3.398,2.096-6.919,2.096-10.536
		c0-2.493-0.343-4.959-1.014-7.357c0-0.014-0.014-0.027-0.014-0.041c0-0.014-0.014-0.014-0.014-0.027
		c-0.041-0.096-0.082-0.206-0.123-0.301c-4.329-11.316-12.001-21.578-22.112-30.031c-6.083-5.083-13.043-9.535-20.715-13.221
		c-0.466-0.219-0.932-0.438-1.397-0.644c-11.001-5.083-23.373-8.59-36.607-10.07c-2.987,0.781-5.919,1.63-8.782,2.548
		c-10.563,3.37-20.304,7.645-28.99,12.686c-0.904,2.521-1.671,5.096-2.26,7.727c-0.507,2.096-0.891,4.22-1.165,6.371
		c-0.205,1.466-0.356,2.932-0.452,4.425C986.032,570.797,985.977,572.331,985.977,573.866z"/>
</g>
</svg>
